# xmcd CD database file
#
# Track frame offsets:
#	150
#	16963
#	38703
#	55875
#	78726
#	94386
#	116639
#	139611
#	157737
#	172099
#	187658
#	208117
#	222257
#	239846
#
# Disc length: 3509 seconds
#
# Revision: 0
# Processed by: cddbd v1.5.1PL0 Copyright (c) Steve Scherf et al.
# Submitted via: CDex 1.51
#
DISCID=c20db30e
DTITLE=Álvaro Cueva - Canabi Emotiva
DYEAR=2005
DGENRE=Jazz
TTITLE0=Kátia e Paulo
TTITLE1=Canabi Emotiva
TTITLE2=Serenata para a Moça do 1301
TTITLE3=Bosconeana
TTITLE4=Sorte no Amor
TTITLE5=Ira
TTITLE6=Segunda Cena
TTITLE7=Choro da Viagem Sem Rumo
TTITLE8=Dance, Menina
TTITLE9=Encrenca e Formosura
TTITLE10=Meio-dia na Praça da Sé
TTITLE11=Declaração de Bem
TTITLE12=Samba Precoce
TTITLE13=Paulo Responde
EXTD=YEAR: 2005
EXTT0=
EXTT1=
EXTT2=
EXTT3=
EXTT4=
EXTT5=
EXTT6=
EXTT7=
EXTT8=
EXTT9=
EXTT10=
EXTT11=
EXTT12=
EXTT13=
PLAYORDER=
